# xmcd CD database file
#
# Track frame offsets:
#	150
#	14947
#	38857
#	67310
#	101917
#	127225
#	152527
#	176910
#	205075
#	232987
#	244947
#
# Disc length: 3523 seconds
#
# Revision: 4
# Processed by: cddbd v1.5.2PL0 Copyright (c) Steve Scherf et al.
# Submitted via: CDex 1.51
#
DISCID=a60dc10b
DTITLE=Barbara Thompson and The Medici Quartet - Barbara Song
DYEAR=1994
DGENRE=Cabaret
TTITLE0=Je ne t'aime pas
TTITLE1=Barbara Song
TTITLE2=Mack the Knife
TTITLE3=Zuhalterballade
TTITLE4=It Never Was You
TTITLE5=Speak Low
TTITLE6=Surabaya Johnny
TTITLE7=September Song
TTITLE8=The Bilbao Song
TTITLE9=Nana's Lied
TTITLE10=My Ship
EXTD=Songs of Kurt Weill\nArranged for Saxaphone and String Quartet\n\nBarbara Thompson  Soprano Sox on 1, 4, 6, 8, 9, 10\n                               Alto Sax on 3, 5, 7\nTenor Sax on 2, 11\n\nMedici String Quartet\n\nPaul Robertson             Violi
EXTD=n\nCathy Thompson           Violin\nIvo-Jan van der Werff   Viola\nAnthony Lewis              Cello YEAR: 1994
EXTT0=arr.  Barbara Thompson
EXTT1=arr. Neil Ardley\nfrom The Threepenny Opera
EXTT2=arr. Barbara Thompson\nfrom The Threepenny Opera
EXTT3=arr. Barry Guy\nfrom The Threepenny Opera
EXTT4=arr.  Richard Rodney Bennett\nfrom Knickerbocker Holiday
EXTT5=arr.  John Dankworth\nfrom One Touch of Venus
EXTT6=arr.  Geoffrey Burgon\nfrom Happy End
EXTT7=arr.  Mike Westbrook\nfrom Knickerbocker Holiday
EXTT8=arr.  Mike Gibbs\nfrom Happy End
EXTT9=arr.  David Butler\nwritten for - but never performed by Lotta Lenya
EXTT10=arr.  Gary Schneider\nfrom Lady In The Night
PLAYORDER=
